<?xml version="1.0" standalone="no"?>
<!DOCTYPE svg PUBLIC "-//W3C//DTD SVG 20010904//EN"
 "http://www.w3.org/TR/2001/REC-SVG-20010904/DTD/svg10.dtd">
<svg version="1.0" xmlns="http://www.w3.org/2000/svg"
 width="500.000000pt" height="500.000000pt" viewBox="0 0 500.000000 500.000000"
 preserveAspectRatio="xMidYMid meet">

<g transform="translate(0.000000,500.000000) scale(0.100000,-0.100000)"
fill="#000000" stroke="none">
<path d="M0 2500 l0 -2500 2500 0 2500 0 0 2500 0 2500 -2500 0 -2500 0 0
-2500z m2150 979 c70 -11 142 -30 137 -36 -2 -2 -33 4 -68 13 -132 35 -314 17
-437 -42 -65 -32 -164 -122 -198 -181 -33 -55 -43 -57 -12 -2 105 187 338 287
578 248z m995 -21 c-63 -12 -165 -60 -213 -101 -23 -20 -30 -23 -17 -8 51 60
179 121 250 119 21 0 15 -3 -20 -10z m-815 -28 c8 -5 11 -10 5 -10 -5 0 -17 5
-25 10 -8 5 -10 10 -5 10 6 0 17 -5 25 -10z m50 -20 c8 -5 11 -10 5 -10 -5 0
-17 5 -25 10 -8 5 -10 10 -5 10 6 0 17 -5 25 -10z m1020 -333 c0 -40 -34 -102
-72 -129 -27 -19 -45 -23 -98 -23 -59 1 -148 21 -137 31 2 3 17 0 32 -6 45
-17 150 -14 182 5 49 29 68 64 68 125 0 30 -3 66 -7 80 -4 14 1 7 12 -15 11
-22 20 -53 20 -68z m-330 -107 c8 -5 11 -10 5 -10 -5 0 -17 5 -25 10 -8 5 -10
10 -5 10 6 0 17 -5 25 -10z m-529 -249 c-60 -84 -195 -180 -276 -196 -16 -4
-4 5 28 19 78 33 123 65 199 142 34 35 64 64 66 64 2 0 -6 -13 -17 -29z m-840
-810 c20 -25 26 -76 9 -86 -7 -4 -7 -12 0 -25 16 -30 12 -62 -12 -87 -19 -20
-31 -23 -100 -23 -72 0 -78 2 -78 20 0 11 7 23 15 26 11 5 15 24 15 80 0 59
-3 74 -15 74 -9 0 -15 10 -15 26 l0 26 81 -4 c70 -3 83 -6 100 -27z m256 13
c4 -10 -1 -22 -10 -29 -13 -9 -17 -29 -17 -84 l0 -71 30 0 c23 0 30 4 30 20 0
16 7 20 30 20 29 0 30 -2 30 -45 l0 -45 -100 0 -100 0 0 25 c0 14 5 25 10 25
6 0 10 32 10 75 0 43 -4 75 -10 75 -5 0 -10 11 -10 25 0 23 3 25 50 25 38 0
52 -4 57 -16z m397 -15 c87 -76 39 -219 -73 -221 -113 -1 -163 145 -75 221 48
43 100 43 148 0z m346 19 c34 -11 40 -17 40 -40 0 -23 -4 -28 -24 -28 -13 0
-29 7 -36 15 -32 39 -100 -7 -100 -66 0 -33 31 -69 59 -69 11 0 27 8 37 18 17
16 17 17 -9 20 -19 2 -27 9 -27 23 0 17 7 19 60 19 l60 0 0 -65 c0 -63 -1 -65
-25 -65 -16 0 -25 6 -25 16 0 14 -2 14 -22 0 -81 -57 -192 47 -159 147 16 46
64 87 102 87 16 0 47 -6 69 -12z m355 2 c3 -5 17 -10 31 -10 20 0 24 -5 24
-30 0 -25 -4 -30 -22 -30 -13 0 -32 7 -42 15 -44 33 -96 1 -96 -60 0 -56 55
-96 88 -63 18 18 15 28 -8 28 -13 0 -20 7 -20 20 0 18 7 20 60 20 l60 0 0 -65
c0 -63 -1 -65 -25 -65 -16 0 -25 6 -25 16 0 14 -2 14 -22 0 -54 -38 -139 -4
-159 63 -17 57 -5 104 37 140 26 23 44 31 74 31 21 0 42 -4 45 -10z m305 -14
c0 -13 -5 -26 -11 -28 -7 -2 -3 -13 8 -27 l19 -23 12 26 c7 16 8 26 2 26 -6 0
-10 11 -10 25 0 24 3 25 55 25 52 0 55 -1 55 -25 0 -14 -4 -25 -10 -25 -5 0
-25 -21 -45 -46 -37 -49 -46 -98 -20 -108 8 -3 15 -15 15 -26 0 -18 -6 -20
-60 -20 -54 0 -60 2 -60 20 0 11 7 23 15 26 8 4 15 18 15 32 0 31 -57 122 -76
122 -8 0 -14 10 -14 25 0 24 3 25 55 25 51 0 55 -2 55 -24z m-1285 -371 c1
-28 -2 -31 -27 -27 -24 4 -28 1 -28 -18 0 -19 4 -22 29 -18 17 2 28 1 25 -4
-3 -4 -18 -8 -35 -8 -29 0 -29 1 -29 56 l0 55 33 -3 c28 -3 32 -6 32 -33z
m143 -68 c25 -4 24 -4 -5 -6 l-33 -1 2 58 2 57 3 -52 c4 -47 6 -52 31 -56z
m206 81 c21 -30 20 -44 -4 -68 -36 -36 -90 -16 -90 35 0 52 65 74 94 33z m197
5 c11 -15 11 -16 -1 -5 -32 28 -80 8 -80 -34 0 -30 24 -48 55 -40 31 8 33 33
3 39 -20 4 -19 4 5 6 21 1 27 -4 27 -19 0 -20 -27 -40 -54 -40 -22 0 -46 28
-46 55 0 48 63 74 91 38z m183 11 c9 -3 16 -11 16 -17 0 -7 -4 -7 -12 1 -16
16 -50 15 -68 0 -12 -11 -12 -10 -1 5 14 17 37 22 65 11z m126 -4 c0 -5 8 -18
18 -28 12 -12 15 -26 11 -47 -6 -27 -7 -28 -8 -5 -1 14 -10 40 -21 58 -11 17
-15 32 -10 32 6 0 10 -4 10 -10z m60 -10 c-6 -11 -13 -20 -16 -20 -2 0 0 9 6
20 6 11 13 20 16 20 2 0 0 -9 -6 -20z m-224 -76 c23 -6 54 9 54 27 0 4 -10 10
-22 12 -20 4 -19 4 5 6 15 0 27 -4 27 -11 0 -19 -31 -48 -52 -48 -23 0 -58 35
-57 58 0 11 4 7 11 -11 6 -16 20 -30 34 -33z"/>
<path d="M1600 1866 c0 -22 4 -26 31 -26 26 0 30 3 27 23 -2 16 -11 23 -30 25
-24 3 -28 0 -28 -22z"/>
<path d="M1600 1765 c0 -21 5 -25 30 -25 25 0 30 4 30 25 0 21 -5 25 -30 25
-25 0 -30 -4 -30 -25z"/>
<path d="M2240 1870 c-42 -42 -15 -130 40 -130 35 0 60 32 60 77 0 37 -29 73
-60 73 -11 0 -29 -9 -40 -20z"/>
<path d="M2020 1549 c0 -15 5 -20 22 -17 34 5 37 38 4 38 -20 0 -26 -5 -26
-21z"/>
<path d="M2352 1558 c-17 -17 -15 -53 3 -68 20 -17 62 -5 70 20 14 44 -41 80
-73 48z"/>
</g>
</svg>
